<?xml version="1.0" encoding="UTF-8" standalone="no"?>
<svg
   width="1672"
   height="94"
   viewBox="0 0 1672 94"
   version="1.1"
   id="svg1"
   sodipodi:docname="1P title.svg"
   inkscape:version="1.3.2 (091e20ef0f, 2023-11-25)"
   xmlns:inkscape="http://www.inkscape.org/namespaces/inkscape"
   xmlns:sodipodi="http://sodipodi.sourceforge.net/DTD/sodipodi-0.dtd"
   xmlns="http://www.w3.org/2000/svg"
   xmlns:svg="http://www.w3.org/2000/svg">
  <defs
     id="defs1" />
  <sodipodi:namedview
     id="namedview1"
     pagecolor="#ffffff"
     bordercolor="#000000"
     borderopacity="0.25"
     inkscape:showpageshadow="2"
     inkscape:pageopacity="0.0"
     inkscape:pagecheckerboard="0"
     inkscape:deskcolor="#d1d1d1"
     inkscape:zoom="0.61772778"
     inkscape:cx="806.98978"
     inkscape:cy="-65.56286"
     inkscape:window-width="1920"
     inkscape:window-height="1027"
     inkscape:window-x="-8"
     inkscape:window-y="-8"
     inkscape:window-maximized="1"
     inkscape:current-layer="svg1" />
  <g
     id="svgGroup"
     stroke-linecap="round"
     fill-rule="evenodd"
     font-size="12px"
     stroke="#000"
     stroke-width="0.25mm"
     fill="#000"
     style="fill:#000000;stroke:#000000;stroke-width:0.25mm"
     transform="translate(19.679722,155.29444)">
    <path
       d="m 1023.3,32 h 7.5 v 2.3 q 2.6,-2.3 6.2,-2.3 h 0.6 q 4.327,0 7.088,1.529 A 8.521,8.521 0 0 1 1047.5,36 10.585,10.585 0 0 1 1055.206,32.035 13.826,13.826 0 0 1 1056.2,32 h 0.6 a 19.022,19.022 0 0 1 3.34,0.273 q 3.621,0.647 5.66,2.827 2.561,2.737 2.86,9.218 a 38.636,38.636 0 0 1 0.04,1.782 V 82 h -8 V 46 q 0,-4.1 -0.85,-5.7 -0.85,-1.6 -3.85,-1.6 h -0.6 q -2.048,0 -3.234,0.956 a 3.734,3.734 0 0 0 -0.916,1.094 9.902,9.902 0 0 0 -1.233,4.239 A 11.557,11.557 0 0 0 1050,45.3 V 82 h -8 V 46 a 27.798,27.798 0 0 0 -0.059,-1.879 q -0.122,-1.791 -0.497,-2.91 A 4.282,4.282 0 0 0 1041,40.25 q -1,-1.55 -3.6,-1.55 h -0.6 a 8.023,8.023 0 0 0 -1.526,0.135 q -1.807,0.35 -2.674,1.615 -1.2,1.75 -1.3,3.95 V 82 h -8 z m 324,0 h 7.5 v 2.3 q 2.6,-2.3 6.2,-2.3 h 0.6 q 4.327,0 7.088,1.529 A 8.521,8.521 0 0 1 1371.5,36 10.585,10.585 0 0 1 1379.206,32.035 13.826,13.826 0 0 1 1380.2,32 h 0.6 a 19.022,19.022 0 0 1 3.34,0.273 q 3.621,0.647 5.66,2.827 2.561,2.737 2.86,9.218 a 38.636,38.636 0 0 1 0.04,1.782 V 82 h -8 V 46 q 0,-4.1 -0.85,-5.7 -0.85,-1.6 -3.85,-1.6 h -0.6 q -2.048,0 -3.234,0.956 a 3.734,3.734 0 0 0 -0.916,1.094 9.902,9.902 0 0 0 -1.233,4.239 A 11.557,11.557 0 0 0 1374,45.3 V 82 h -8 V 46 a 27.798,27.798 0 0 0 -0.059,-1.879 q -0.122,-1.791 -0.497,-2.91 A 4.282,4.282 0 0 0 1365,40.25 q -1,-1.55 -3.6,-1.55 h -0.6 a 8.023,8.023 0 0 0 -1.526,0.135 q -1.807,0.35 -2.674,1.615 -1.2,1.75 -1.3,3.95 V 82 h -8 z M 18.5,53 H 8.7 V 82 H 0 V 12 h 18.8 a 30.805,30.805 0 0 1 4.794,0.348 q 5.031,0.795 8.056,3.402 a 11.556,11.556 0 0 1 3.362,5.118 Q 36,23.74 36,27.6 v 9.6 q 0,7.216 -3.67,10.966 A 12.487,12.487 0 0 1 27,51.3 L 40.9,82 H 31.4 Z M 379.7,32 h 8 v 2.4 a 11.066,11.066 0 0 1 4.316,-2.004 Q 393.709,32 395.7,32 h 4.6 a 27.475,27.475 0 0 1 4.444,0.335 q 4.829,0.793 7.606,3.465 3.95,3.8 3.95,12.2 v 34 h -8.5 V 46 A 8.322,8.322 0 0 0 407.574,44.005 5.762,5.762 0 0 0 406.05,41.25 5.821,5.821 0 0 0 403.053,39.671 8.54,8.54 0 0 0 401.3,39.5 h -6.6 q -3.3,0 -4.9,1.75 A 6.786,6.786 0 0 0 388.794,42.655 4.96,4.96 0 0 0 388.2,45 v 37 h -8.5 z m 1080,0 h 8 v 2.4 a 11.066,11.066 0 0 1 4.316,-2.004 Q 1473.709,32 1475.7,32 h 4.6 a 27.475,27.475 0 0 1 4.444,0.335 q 4.829,0.793 7.606,3.465 3.95,3.8 3.95,12.2 v 34 h -8.5 V 46 a 8.322,8.322 0 0 0 -0.226,-1.995 5.762,5.762 0 0 0 -1.524,-2.755 5.821,5.821 0 0 0 -2.997,-1.579 8.54,8.54 0 0 0 -1.753,-0.171 h -6.6 q -3.3,0 -4.9,1.75 a 6.786,6.786 0 0 0 -1.006,1.405 A 4.96,4.96 0 0 0 1468.2,45 v 37 h -8.5 z m -952,50 h -3.4 a 27.475,27.475 0 0 1 -4.444,-0.335 Q 495.027,80.872 492.25,78.2 488.3,74.4 488.3,66 V 32 h 8.5 v 36 a 8.322,8.322 0 0 0 0.226,1.995 5.762,5.762 0 0 0 1.524,2.755 5.821,5.821 0 0 0 2.997,1.579 8.54,8.54 0 0 0 1.753,0.171 h 5.4 a 10.182,10.182 0 0 0 1.755,-0.141 q 1.905,-0.334 2.995,-1.459 a 6.62,6.62 0 0 0 1.183,-1.64 5.585,5.585 0 0 0 0.567,-1.96 V 32 h 8.5 v 50 h -8 V 79.7 A 12.668,12.668 0 0 1 510.401,81.792 16.911,16.911 0 0 1 507.7,82 Z M 165.9,65 V 29 q 0,-6.035 2.344,-9.927 A 12.622,12.622 0 0 1 170.55,16.25 Q 175.2,12 183.9,12 h 14.2 v 7.6 h -15.2 a 10.154,10.154 0 0 0 -2.677,0.336 7.628,7.628 0 0 0 -3.323,1.864 7.419,7.419 0 0 0 -1.778,2.55 7.174,7.174 0 0 0 -0.522,2.75 v 39.8 a 7.044,7.044 0 0 0 2.158,5.162 8.908,8.908 0 0 0 0.142,0.138 7.812,7.812 0 0 0 4.29,2.071 10.916,10.916 0 0 0 1.71,0.129 h 15.2 V 82 h -14.2 q -6.182,0 -10.319,-2.146 a 14.067,14.067 0 0 1 -3.031,-2.104 13.425,13.425 0 0 1 -3.752,-6.1 q -0.673,-2.186 -0.842,-4.834 A 28.627,28.627 0 0 1 165.9,65 Z m 164.7,9.7 h 9 V 19.3 h -9 V 12 h 26.7 v 7.3 h -9 v 55.4 h 9 V 82 H 330.6 Z M 939.2,0 h 8.8 q -4.581,5.535 -6.885,9.385 A 35.46,35.46 0 0 0 940.9,9.75 q -2.3,3.95 -3.35,8.85 a 39.875,39.875 0 0 0 -0.598,3.711 Q 936.5,26.181 936.5,31.3 v 31.4 a 95.054,95.054 0 0 0 0.124,5.02 q 0.237,4.464 0.926,7.68 a 31.264,31.264 0 0 0 2.035,6.288 27.48,27.48 0 0 0 1.315,2.562 q 2.3,3.95 7.1,9.75 h -8.8 q -5.3,-5.5 -8.25,-12.7 a 34.359,34.359 0 0 1 -1.798,-6.019 Q 928,69.75 928,62.5 v -31 q 0,-8.151 1.456,-14.129 A 32.787,32.787 0 0 1 930.95,12.7 Q 933.9,5.5 939.2,0 Z m 159.6,94 h -8.8 q 4.581,-5.535 6.885,-9.385 a 35.46,35.46 0 0 0 0.215,-0.365 q 2.3,-3.95 3.35,-8.85 a 39.875,39.875 0 0 0 0.598,-3.711 q 0.452,-3.87 0.452,-8.989 V 31.3 a 95.054,95.054 0 0 0 -0.124,-5.02 q -0.237,-4.464 -0.926,-7.68 A 31.264,31.264 0 0 0 1098.415,12.312 27.48,27.48 0 0 0 1097.1,9.75 Q 1094.8,5.8 1090,0 h 8.8 q 5.3,5.5 8.25,12.7 2.95,7.2 2.95,18.8 v 31 q 0,8.151 -1.456,14.129 a 32.787,32.787 0 0 1 -1.494,4.671 q -2.95,7.2 -8.25,12.7 z M 560.2,82 h -14.9 v -7.5 h 15.9 a 10.134,10.134 0 0 0 1.543,-0.11 q 0.794,-0.122 1.434,-0.382 A 4.32,4.32 0 0 0 565.3,73.35 q 1.4,-1.15 1.4,-3.35 v -5.3 a 6.801,6.801 0 0 0 -0.206,-1.753 Q 565.759,60.2 562.4,60.2 h -3.7 a 25.593,25.593 0 0 1 -3.843,-0.269 q -1.96,-0.298 -3.534,-0.928 a 10.449,10.449 0 0 1 -3.073,-1.853 9.36,9.36 0 0 1 -2.614,-4.013 q -0.542,-1.549 -0.733,-3.459 A 21.964,21.964 0 0 1 544.8,47.5 v -2.9 a 18.577,18.577 0 0 1 0.318,-3.56 q 0.78,-3.993 3.482,-6.09 a 12.259,12.259 0 0 1 3.682,-1.91 q 1.733,-0.577 3.856,-0.834 A 30.553,30.553 0 0 1 559.8,32 h 13.4 v 7.5 h -14.4 a 8.842,8.842 0 0 0 -1.634,0.142 q -0.953,0.179 -1.708,0.585 A 4.826,4.826 0 0 0 554.8,40.65 q -1.5,1.15 -1.5,3.35 v 3.6 a 6.208,6.208 0 0 0 0.125,1.29 q 0.168,0.788 0.56,1.377 a 3.291,3.291 0 0 0 0.665,0.733 4.789,4.789 0 0 0 2.124,0.976 6.759,6.759 0 0 0 1.326,0.124 h 3.4 a 22.124,22.124 0 0 1 3.875,0.317 q 2.143,0.382 3.834,1.223 a 10.527,10.527 0 0 1 2.491,1.71 q 3.117,2.895 3.458,8.288 A 21.598,21.598 0 0 1 575.2,65 v 4.5 q 0,6.3 -3.85,9.4 a 12.536,12.536 0 0 1 -4.029,2.119 q -1.79,0.583 -3.965,0.819 A 29.221,29.221 0 0 1 560.2,82 Z m 270,0 h -14.9 v -7.5 h 15.9 a 10.134,10.134 0 0 0 1.543,-0.11 q 0.794,-0.122 1.434,-0.382 A 4.32,4.32 0 0 0 835.3,73.35 q 1.4,-1.15 1.4,-3.35 v -5.3 a 6.801,6.801 0 0 0 -0.206,-1.753 Q 835.759,60.2 832.4,60.2 h -3.7 a 25.593,25.593 0 0 1 -3.843,-0.269 q -1.96,-0.298 -3.534,-0.928 a 10.449,10.449 0 0 1 -3.073,-1.853 9.36,9.36 0 0 1 -2.614,-4.013 q -0.542,-1.549 -0.733,-3.459 A 21.964,21.964 0 0 1 814.8,47.5 v -2.9 a 18.577,18.577 0 0 1 0.318,-3.56 q 0.78,-3.993 3.482,-6.09 a 12.259,12.259 0 0 1 3.682,-1.91 q 1.733,-0.577 3.856,-0.834 A 30.553,30.553 0 0 1 829.8,32 h 13.4 v 7.5 h -14.4 a 8.842,8.842 0 0 0 -1.634,0.142 q -0.953,0.179 -1.708,0.585 A 4.826,4.826 0 0 0 824.8,40.65 q -1.5,1.15 -1.5,3.35 v 3.6 a 6.208,6.208 0 0 0 0.125,1.29 q 0.168,0.788 0.56,1.377 a 3.291,3.291 0 0 0 0.665,0.733 4.789,4.789 0 0 0 2.124,0.976 6.759,6.759 0 0 0 1.326,0.124 h 3.4 a 22.124,22.124 0 0 1 3.875,0.317 q 2.143,0.382 3.834,1.223 a 10.527,10.527 0 0 1 2.491,1.71 q 3.117,2.895 3.458,8.288 A 21.598,21.598 0 0 1 845.2,65 v 4.5 q 0,6.3 -3.85,9.4 a 12.536,12.536 0 0 1 -4.029,2.119 q -1.79,0.583 -3.965,0.819 A 29.221,29.221 0 0 1 830.2,82 Z M 1580.7,72 V 19.5 H 1566 V 12 h 23.2 v 59.5 a 5.043,5.043 0 0 0 0.063,0.829 q 0.162,0.968 0.737,1.471 0.725,0.634 2.352,0.694 A 9.498,9.498 0 0 0 1592.7,74.5 H 1606 V 82 h -16.8 q -3.4,0 -5.95,-2.4 -2,-1.882 -2.431,-5.486 A 17.806,17.806 0 0 1 1580.7,72 Z M 607.2,70 V 39.5 h -9.5 V 32 h 9.5 V 20 h 8.5 v 12 h 14.6 v 7.5 h -14.6 v 31 a 6.94,6.94 0 0 0 0.078,1.077 q 0.089,0.569 0.283,1.016 a 2.615,2.615 0 0 0 0.739,1.007 3.402,3.402 0 0 0 1.042,0.566 q 0.942,0.329 2.316,0.334 a 11.697,11.697 0 0 0 0.042,0 h 10.1 V 82 H 617.7 A 12.553,12.553 0 0 1 614.486,81.612 8.607,8.607 0 0 1 609.9,78.7 q -2.596,-3.173 -2.696,-8.288 A 21.123,21.123 0 0 1 607.2,70 Z m 378,0 V 39.5 h -9.5 V 32 h 9.5 V 20 h 8.5 v 12 h 14.6 v 7.5 h -14.6 v 31 a 6.94,6.94 0 0 0 0.078,1.077 q 0.089,0.569 0.283,1.016 a 2.615,2.615 0 0 0 0.739,1.007 3.402,3.402 0 0 0 1.042,0.566 q 0.942,0.329 2.316,0.334 a 11.697,11.697 0 0 0 0.042,0 h 10.1 V 82 H 995.7 A 12.553,12.553 0 0 1 992.486,81.612 8.607,8.607 0 0 1 987.9,78.7 q -2.596,-3.173 -2.696,-8.288 A 21.123,21.123 0 0 1 985.2,70 Z m 216,0 V 39.5 h -9.5 V 32 h 9.5 V 20 h 8.5 v 12 h 14.6 v 7.5 h -14.6 v 31 a 6.94,6.94 0 0 0 0.078,1.077 q 0.089,0.569 0.283,1.016 a 2.615,2.615 0 0 0 0.739,1.007 3.402,3.402 0 0 0 1.042,0.566 q 0.942,0.329 2.316,0.334 a 11.697,11.697 0 0 0 0.042,0 h 10.1 V 82 h -12.6 a 12.553,12.553 0 0 1 -3.214,-0.388 8.607,8.607 0 0 1 -4.586,-2.912 q -2.596,-3.173 -2.696,-8.288 a 21.123,21.123 0 0 1 0,-0.412 z m 333.9,12 h -8.9 a 29.968,29.968 0 0 1 -3.94,-0.24 q -4.357,-0.58 -6.811,-2.558 a 8.56,8.56 0 0 1 -0.299,-0.252 8.834,8.834 0 0 1 -2.297,-3.348 q -1.136,-2.781 -1.153,-6.973 a 31.477,31.477 0 0 1 0,-0.129 v -2 q 0,-13.184 10.564,-15.154 A 22.048,22.048 0 0 1 1526.3,51 h 12.4 v -5 a 8.114,8.114 0 0 0 -0.225,-1.966 5.485,5.485 0 0 0 -1.675,-2.834 q -1.9,-1.7 -5.6,-1.7 h -15.5 V 32 h 14.5 a 31.686,31.686 0 0 1 4.65,0.318 q 2.378,0.353 4.285,1.102 a 12.469,12.469 0 0 1 3.915,2.38 q 3.254,2.98 3.957,8.788 A 28.463,28.463 0 0 1 1547.2,48 v 24 a 3.097,3.097 0 0 0 0.136,0.943 2.396,2.396 0 0 0 1.014,1.307 q 0.972,0.634 3.053,0.732 A 16.974,16.974 0 0 0 1552.2,75 v 7 h -5.5 a 4.977,4.977 0 0 1 -1.274,-0.176 q -0.558,-0.148 -1.156,-0.42 a 9.522,9.522 0 0 1 -0.42,-0.204 q -1.55,-0.8 -2.65,-2.2 -2.244,2.927 -5.916,2.998 A 9.49,9.49 0 0 1 1535.1,82 Z M 129.5,82 h -20 V 12 h 18.8 q 8.672,0 12.834,3.418 a 10.443,10.443 0 0 1 0.216,0.182 q 4.15,3.6 4.15,12 v 5.7 a 17.05,17.05 0 0 1 -0.646,4.832 12.373,12.373 0 0 1 -4.854,6.768 12.01,12.01 0 0 1 6.189,8.738 19.333,19.333 0 0 1 0.311,3.562 v 9 a 29.611,29.611 0 0 1 -0.279,4.216 q -0.742,5.142 -3.459,7.784 a 9.022,9.022 0 0 1 -0.212,0.2 q -3.704,3.376 -11.937,3.586 A 43.626,43.626 0 0 1 129.5,82 Z m 325,0 h -4.1 a 32.875,32.875 0 0 1 -4.578,-0.297 q -2.352,-0.331 -4.239,-1.034 A 12.356,12.356 0 0 1 437.5,78.25 Q 433.4,74.5 433.4,66 V 48 a 26.97,26.97 0 0 1 0.328,-4.361 q 0.839,-5.108 3.822,-7.839 3.063,-2.805 8.604,-3.539 A 32.376,32.376 0 0 1 450.4,32 H 462 V 12 h 8.5 v 70 h -8 V 79.7 A 12.668,12.668 0 0 1 457.201,81.792 16.911,16.911 0 0 1 454.5,82 Z M 651,74.5 h 7.3 v -35 H 651 V 32 h 15.3 v 2.7 A 11.907,11.907 0 0 1 673.006,32.053 15.401,15.401 0 0 1 674.3,32 h 10.3 v 8 h -11.3 a 7.92,7.92 0 0 0 -1.907,0.215 5.111,5.111 0 0 0 -2.893,1.835 9.186,9.186 0 0 0 -1.037,1.642 6.421,6.421 0 0 0 -0.663,2.508 v 28.3 h 10.9 V 82 H 651 Z m 648,0 h 7.3 v -35 H 1299 V 32 h 15.3 v 2.7 a 11.907,11.907 0 0 1 6.706,-2.647 A 15.401,15.401 0 0 1 1322.3,32 h 10.3 v 8 h -11.3 a 7.92,7.92 0 0 0 -1.907,0.215 5.111,5.111 0 0 0 -2.893,1.835 9.186,9.186 0 0 0 -1.037,1.642 6.421,6.421 0 0 0 -0.663,2.508 v 28.3 h 10.9 V 82 H 1299 Z M 758.4,66 V 48 q 0,-8.136 3.312,-11.887 A 9.139,9.139 0 0 1 762.1,35.7 10.761,10.761 0 0 1 765.826,33.339 Q 769.227,32 774.4,32 h 4.7 q 5.29,0 8.665,2.193 a 10.953,10.953 0 0 1 2.085,1.757 q 3.003,3.25 3.535,8.971 A 27.862,27.862 0 0 1 793.5,47.5 v 13 H 766.9 V 68 a 8.114,8.114 0 0 0 0.225,1.966 5.485,5.485 0 0 0 1.675,2.834 q 1.9,1.7 5.6,1.7 h 15.9 V 82 h -14.9 a 32.875,32.875 0 0 1 -4.578,-0.297 q -2.352,-0.331 -4.239,-1.034 A 12.356,12.356 0 0 1 762.5,78.25 Q 758.4,74.5 758.4,66 Z m 486,0 V 48 q 0,-8.136 3.312,-11.887 a 9.139,9.139 0 0 1 0.388,-0.413 10.761,10.761 0 0 1 3.726,-2.361 Q 1255.227,32 1260.4,32 h 4.7 q 5.29,0 8.665,2.193 a 10.953,10.953 0 0 1 2.085,1.757 q 3.003,3.25 3.535,8.971 a 27.862,27.862 0 0 1 0.115,2.579 v 13 h -26.6 V 68 a 8.114,8.114 0 0 0 0.225,1.966 5.485,5.485 0 0 0 1.675,2.834 q 1.9,1.7 5.6,1.7 h 15.9 V 82 h -14.9 a 32.875,32.875 0 0 1 -4.578,-0.297 q -2.352,-0.331 -4.239,-1.034 A 12.356,12.356 0 0 1 1248.5,78.25 Q 1244.4,74.5 1244.4,66 Z M 76,82 H 72 Q 65.818,82 61.681,79.854 A 14.067,14.067 0 0 1 58.65,77.75 13.425,13.425 0 0 1 54.898,71.65 Q 54.225,69.464 54.056,66.816 A 28.627,28.627 0 0 1 54,65 V 29 q 0,-6.035 2.344,-9.927 A 12.622,12.622 0 0 1 58.65,16.25 Q 63.3,12 72,12 h 4 q 6.182,0 10.319,2.146 a 14.067,14.067 0 0 1 3.031,2.104 13.425,13.425 0 0 1 3.752,6.1 q 0.673,2.186 0.842,4.834 A 28.627,28.627 0 0 1 94,29 v 36 q 0,6.035 -2.344,9.927 A 12.622,12.622 0 0 1 89.35,77.75 Q 84.7,82 76,82 Z m 162,0 h -4 q -6.182,0 -10.319,-2.146 a 14.067,14.067 0 0 1 -3.031,-2.104 13.425,13.425 0 0 1 -3.752,-6.1 q -0.673,-2.186 -0.842,-4.834 A 28.627,28.627 0 0 1 216,65 V 29 q 0,-6.035 2.344,-9.927 A 12.622,12.622 0 0 1 220.65,16.25 Q 225.3,12 234,12 h 4 q 6.182,0 10.319,2.146 a 14.067,14.067 0 0 1 3.031,2.104 13.425,13.425 0 0 1 3.752,6.1 q 0.673,2.186 0.842,4.834 A 28.627,28.627 0 0 1 256,29 v 36 q 0,6.035 -2.344,9.927 A 12.622,12.622 0 0 1 251.35,77.75 Q 246.7,82 238,82 Z M 717.7,39.5 H 703 V 32 h 23.2 V 74.5 H 741 V 82 h -23.3 z m 702,0 H 1405 V 32 h 23.2 V 74.5 H 1443 V 82 h -23.3 z M 77,19.6 H 71 A 10.154,10.154 0 0 0 68.323,19.936 7.628,7.628 0 0 0 65,21.8 7.419,7.419 0 0 0 63.222,24.35 7.174,7.174 0 0 0 62.7,27.1 V 66.9 A 7.044,7.044 0 0 0 64.858,72.062 8.908,8.908 0 0 0 65,72.2 7.812,7.812 0 0 0 69.29,74.271 10.916,10.916 0 0 0 71,74.4 h 6 A 10.154,10.154 0 0 0 79.677,74.064 7.628,7.628 0 0 0 83,72.2 7.419,7.419 0 0 0 84.778,69.65 7.174,7.174 0 0 0 85.3,66.9 V 27.1 A 7.044,7.044 0 0 0 83.142,21.938 8.908,8.908 0 0 0 83,21.8 7.812,7.812 0 0 0 78.71,19.729 10.916,10.916 0 0 0 77,19.6 Z m 162,0 h -6 A 10.154,10.154 0 0 0 230.323,19.936 7.628,7.628 0 0 0 227,21.8 7.419,7.419 0 0 0 225.222,24.35 7.174,7.174 0 0 0 224.7,27.1 v 39.8 a 7.044,7.044 0 0 0 2.158,5.162 8.908,8.908 0 0 0 0.142,0.138 7.812,7.812 0 0 0 4.29,2.071 10.916,10.916 0 0 0 1.71,0.129 h 6 A 10.154,10.154 0 0 0 241.677,74.064 7.628,7.628 0 0 0 245,72.2 7.419,7.419 0 0 0 246.778,69.65 7.174,7.174 0 0 0 247.3,66.9 V 27.1 A 7.044,7.044 0 0 0 245.142,21.938 8.908,8.908 0 0 0 245,21.8 7.812,7.812 0 0 0 240.71,19.729 10.916,10.916 0 0 0 239,19.6 Z M 462,69 V 39.5 h -12.6 q -2.461,0 -4.125,0.752 A 5.731,5.731 0 0 0 443.8,41.2 5.54,5.54 0 0 0 442.07,44.272 8.337,8.337 0 0 0 441.9,46 v 22 a 8.114,8.114 0 0 0 0.225,1.966 5.485,5.485 0 0 0 1.675,2.834 q 1.9,1.7 5.6,1.7 h 6.1 q 3.3,0 4.9,-1.75 A 6.786,6.786 0 0 0 461.406,71.345 4.96,4.96 0 0 0 462,69 Z M 130.5,49.1 h -12.3 v 25.4 h 12.2 a 13.077,13.077 0 0 0 2.055,-0.15 q 1.065,-0.17 1.911,-0.532 A 5.32,5.32 0 0 0 136,72.75 Q 137.8,71 137.8,67.2 V 56.3 A 8.795,8.795 0 0 0 137.519,54.015 6.362,6.362 0 0 0 135.8,51.05 6.732,6.732 0 0 0 132.207,49.246 9.577,9.577 0 0 0 130.5,49.1 Z M 20,19.5 H 8.7 v 26 H 20 a 13.12,13.12 0 0 0 1.975,-0.138 q 1.032,-0.158 1.854,-0.495 A 5.173,5.173 0 0 0 25.55,43.75 5.274,5.274 0 0 0 26.746,41.826 Q 27.3,40.338 27.3,38.2 V 26.7 a 13.041,13.041 0 0 0 -0.138,-1.971 q -0.155,-1.01 -0.483,-1.811 A 4.99,4.99 0 0 0 25.55,21.2 5.254,5.254 0 0 0 23.709,20.068 q -0.804,-0.302 -1.8,-0.443 A 13.613,13.613 0 0 0 20,19.5 Z m 109.5,0 h -11.3 v 22.1 h 11.3 a 7.917,7.917 0 0 0 2.758,-0.465 7.049,7.049 0 0 0 2.442,-1.535 6.665,6.665 0 0 0 2.026,-4.108 9.324,9.324 0 0 0 0.074,-1.192 v -7.6 a 13.041,13.041 0 0 0 -0.138,-1.971 q -0.155,-1.01 -0.483,-1.811 A 4.99,4.99 0 0 0 135.05,21.2 5.254,5.254 0 0 0 133.209,20.068 q -0.804,-0.302 -1.8,-0.443 A 13.613,13.613 0 0 0 129.5,19.5 Z m 1409.2,50 v -11 h -12.5 q -2.6,0 -4.3,1.7 -1.7,1.7 -1.7,4.3 v 5 a 8.962,8.962 0 0 0 0.095,1.352 q 0.109,0.712 0.343,1.278 a 3.544,3.544 0 0 0 0.762,1.17 q 1.2,1.2 3.8,1.2 h 8.9 q 2.314,0 3.319,-0.833 A 2.063,2.063 0 0 0 1537.9,73.1 q 0.8,-1.4 0.8,-3.6 z M 785.2,53 v -7.5 q 0,-2.6 -1.7,-4.3 -1.7,-1.7 -4.3,-1.7 h -5.8 q -3.426,0 -4.905,1.494 a 3.595,3.595 0 0 0 -0.145,0.156 q -1.14,1.298 -1.384,3.554 A 12.091,12.091 0 0 0 766.9,46 v 7 z m 486,0 v -7.5 q 0,-2.6 -1.7,-4.3 -1.7,-1.7 -4.3,-1.7 h -5.8 q -3.426,0 -4.905,1.494 a 3.595,3.595 0 0 0 -0.145,0.156 q -1.14,1.298 -1.384,3.554 A 12.091,12.091 0 0 0 1252.9,46 v 7 z m -554,-41 h 9.5 v 9 h -9.5 z m 702,0 h 9.5 v 9 h -9.5 z"
       vector-effect="non-scaling-stroke"
       id="path1"
       style="display:inline" />
  </g>
  <text
     xml:space="preserve"
     style="font-style:normal;font-variant:normal;font-weight:normal;font-stretch:normal;font-size:53.3333px;font-family:'share tech mono';-inkscape-font-specification:'share tech mono';fill:#1a1a1a"
     x="21.044868"
     y="56.659264"
     id="text1"><tspan
       sodipodi:role="line"
       id="tspan1"
       x="21.044868"
       y="56.659264" /></text>
  <text
     xml:space="preserve"
     style="font-size:53.3333px;font-family:'share tech mono';-inkscape-font-specification:'share tech mono';fill:#1a1a1a"
     x="38.919456"
     y="48.076977"
     id="text2"><tspan
       sodipodi:role="line"
       id="tspan2"
       x="38.919456"
       y="48.076977" /></text>
  <text
     xml:space="preserve"
     style="font-size:53.3333px;font-family:'share tech mono';-inkscape-font-specification:'share tech mono';white-space:pre;inline-size:1585.34;fill:#1a1a1a"
     x="13.736279"
     y="59.523876"
     id="text3"
     transform="matrix(1.8905806,0,0,1.8896051,-35.690608,-29.83794)"><tspan
       x="13.736279"
       y="59.523876"
       id="tspan4">BOLBITIUS (tm) tituban terminal  </tspan></text>
  <text
     xml:space="preserve"
     style="font-size:53.3333px;font-family:'share tech mono';-inkscape-font-specification:'share tech mono';fill:#1a1a1a"
     x="480.79431"
     y="-208.82985"
     id="text5"><tspan
       sodipodi:role="line"
       id="tspan5"
       x="480.79431"
       y="-208.82985"></tspan></text>
  <text
     xml:space="preserve"
     style="font-style:normal;font-variant:normal;font-weight:normal;font-stretch:normal;font-size:53.3333px;font-family:Arial;-inkscape-font-specification:Arial;fill:#1a1a1a"
     x="1790.4327"
     y="37.233231"
     id="text6"><tspan
       sodipodi:role="line"
       id="tspan6"
       x="1790.4327"
       y="37.233231" /></text>
  <text
     xml:space="preserve"
     style="font-style:normal;font-variant:normal;font-weight:normal;font-stretch:normal;font-size:53.3333px;font-family:Arial;-inkscape-font-specification:Arial;fill:#1a1a1a"
     x="1031.1986"
     y="642.67792"
     id="text7"><tspan
       sodipodi:role="line"
       id="tspan7"
       x="1031.1986"
       y="642.67792"></tspan></text>
  <text
     xml:space="preserve"
     style="font-size:53.3333px;font-family:'share tech mono';-inkscape-font-specification:'share tech mono';white-space:pre;inline-size:1585.34;fill:#000000"
     x="13.736279"
     y="59.523876"
     id="text3-7"
     transform="matrix(1.8830451,0,0,1.8896051,-32.896156,280.01879)"><tspan
       x="13.736279"
       y="59.523876"
       id="tspan9">ROBCO Industries (tm) terminal  </tspan></text>
  <text
     xml:space="preserve"
     style="font-style:normal;font-variant:normal;font-weight:normal;font-stretch:normal;font-size:53.3333px;font-family:Arial;-inkscape-font-specification:Arial;fill:#000000"
     x="1184.988"
     y="-171.59662"
     id="text8"><tspan
       sodipodi:role="line"
       id="tspan8"
       x="1184.988"
       y="-171.59662">s</tspan></text>
</svg>
